<svg xmlns="http://www.w3.org/2000/svg" xml:space="preserve" width="655.359" height="655.359" style="shape-rendering:geometricPrecision;text-rendering:geometricPrecision;image-rendering:optimizeQuality;fill-rule:evenodd;clip-rule:evenodd" viewBox="0 0 6.827 6.827"><defs><style>.fil12{fill:#686868}.fil0,.fil4,.fil6{fill:#2f2f2f;fill-rule:nonzero}.fil4,.fil6{fill:#565656}.fil4{fill:#b6b6b6}</style></defs><g id="Layer_x0020_1"><path class="fil0" d="M1.063 5.544a.21.21 0 0 0 0 .42h3.62l.015-.001c.344.004.618-.05.822-.144a.85.85 0 0 0 .41-.364.714.714 0 0 0 .062-.508 1.118 1.118 0 0 0-.242-.462.21.21 0 0 0-.321.269.706.706 0 0 1 .156.286.308.308 0 0 1-.023.218.443.443 0 0 1-.216.181c-.15.07-.363.109-.642.106a.212.212 0 0 0-.021-.001h-3.62z"/><path class="fil0" d="M4.263 4.93v.795h-.419V4.93zM2.074 5.137c-.01.053.004.596.004.597l-.418.01c0-.002-.015-.598.003-.689l.411.082z"/><g id="_339687304"><path id="_339688408" d="M1.137 1.925V4.49s.724.238.755.261c.03.024 1.101.031 1.14 0 .038-.03.747.031.777 0 .031-.03.948-.038.948-.038l.9-.223.185-.208s.047-.478-.739-.478c-.135 0-.255-.01-.36-.028-.503-.086-.672-.334-.672-.334s-.108-.254-.608-.485c-.5-.23-.562-1.17-.562-1.17h-.516v.138H1.137z" style="fill:#6e6e6e;fill-rule:nonzero"/><path id="_339688288" d="M1.137 3.046V4.49l.262.087 1.177.007s.09-.349.04-.548c-.166-.663-.96-.268-1.377-.789a.675.675 0 0 1-.102-.2z" style="fill:#686868;fill-rule:nonzero"/><path id="_339688720" d="M5.83 4.23s-.477.224-.993.316c-.516.093-.778.17-1.91 0s-1.802-.108-1.802-.108v.07s.67-.062 1.802.108c1.132.169 1.394.092 1.91 0 .516-.093.993-.316.993-.316v-.07z" style="fill:#5f5f5f;fill-rule:nonzero"/><path id="_339688384" class="fil4" d="M2.85 2.799a.095.095 0 1 0 .192 0 .095.095 0 0 0-.191 0z"/><path id="_339688840" d="M2.9 2.799a.046.046 0 1 0 .092 0 .046.046 0 0 0-.091 0z" style="fill:#868686;fill-rule:nonzero"/><path id="_339687640" class="fil4" d="M2.71 2.41a.096.096 0 1 0 .19 0 .096.096 0 0 0-.19 0z"/><path id="_339687544" class="fil4" d="M2.614 2.02a.095.095 0 1 0 .191 0 .095.095 0 0 0-.191 0z"/><path id="_339688000" class="fil6" d="M2.9 2.802c0 .01.003.02.01.028.008.01.02.015.033.014a.037.037 0 0 0 .021-.009l.022-.015.007-.005.017-.01a.769.769 0 0 1 .185-.08l.006-.002c.018-.038.036-.08-.046-.07l-.005.001a.384.384 0 0 0-.043.015.788.788 0 0 0-.192.106.038.038 0 0 0-.014.027z"/><path id="_339687520" class="fil6" d="M2.759 2.429a.04.04 0 0 0 .026.022.039.039 0 0 0 .025-.002s.01-.005.029-.01l.005-.002.025-.008.03-.008a.713.713 0 0 1 .132-.018h.006c.034-.032.052-.062-.026-.079h-.006l-.014.002a.862.862 0 0 0-.106.017l-.01.003a.754.754 0 0 0-.048.014l-.015.005a.351.351 0 0 0-.033.012.043.043 0 0 0-.016.012.04.04 0 0 0-.004.04z"/><path id="_339687736" class="fil6" d="M2.687 2.024a.04.04 0 0 0 .051.02l.013-.005a1.08 1.08 0 0 1 .02-.007h.003l.031-.01A.697.697 0 0 1 2.928 2h.006c.052-.043.078-.077-.012-.08h-.003l-.003.001a.863.863 0 0 0-.192.045l-.017.006a.04.04 0 0 0-.02.052z"/><path id="_339687496" style="fill:#6e6e6e;fill-rule:nonzero;fill-opacity:.2" d="M1.137 2.013v.123h1.248v-.123z"/><path id="_339687592" d="M1.249 1.609c.16.033.293.046.423.043.13-.003.26-.022.411-.05a.206.206 0 0 1 .039-.004c.076 0 .143.041.193.1a.415.415 0 0 1 .094.237v.174a.082.082 0 0 1-.082.083L1.96 2.19c-.215 0-.413-.001-.667.001-.218.002-.344-.067-.4-.157a.243.243 0 0 1-.037-.16.294.294 0 0 1 .06-.145c.07-.09.193-.15.334-.12z" style="fill:#9c9c9d;fill-rule:nonzero"/><path id="_339687400" d="m5.842 4.282.08.2c-.135.261-1.284.53-1.713.518-.306-.01-.745-.062-1.624-.125l-.306.346c-.631 0-.13.008-.865.008l-.277-.74s.67-.061 1.802.108c1.132.17 1.394.093 1.91 0 .516-.092.993-.315.993-.315z" style="fill:#444"/><path id="_339687808" d="M1.29 3.306c.428.432 1.164.095 1.325.726.245.043 1.056-.039 1.318.089a.893.893 0 0 0 .208-.268.692.692 0 0 0 .07-.28c-.1-.071-.14-.13-.14-.13s-.003-.009-.012-.023a.587.587 0 0 0-.05-.072 1.221 1.221 0 0 0-.302-.259 1.915 1.915 0 0 0-.244-.132.57.57 0 0 1-.08-.044c-.62.276-1.4.484-2.092.393z" style="fill:#737373"/><path id="_339687688" class="fil4" d="M3.246 3.184a.096.096 0 1 0 .19 0 .096.096 0 0 0-.19 0z"/><path id="_339687016" class="fil4" d="M3.654 3.513a.095.095 0 1 0 .19 0 .095.095 0 0 0-.19 0z"/><path id="_339686728" class="fil4" d="M3.999 3.77a.096.096 0 1 0 .19 0 .096.096 0 0 0-.19 0z"/><path id="_339686680" class="fil6" d="M4.066 3.8c.013.017.038.02.055.006l.002-.002.003-.002a.44.44 0 0 1 .032-.022l.03-.018a.671.671 0 0 1 .224-.08l.005-.001c-.023-.044-.036-.095-.114-.055l-.004.001a.382.382 0 0 0-.02.007l-.015.005a.8.8 0 0 0-.152.077l-.012.008a.305.305 0 0 0-.028.021.039.039 0 0 0-.006.055z"/><path id="_339686968" class="fil6" d="M3.712 3.538a.04.04 0 0 0 .055.006l.026-.018.003-.002.015-.01a.66.66 0 0 1 .254-.095c.01-.027.026-.07-.05-.072l-.005.001a.62.62 0 0 0-.085.024l-.015.006a.783.783 0 0 0-.152.077l-.012.008-.01.007a.641.641 0 0 0-.018.013.04.04 0 0 0-.006.055z"/><path id="_339687184" class="fil6" d="M3.296 3.213c.008.01.02.016.033.015a.038.038 0 0 0 .022-.008c0-.001.01-.009.029-.021l.005-.003a.715.715 0 0 1 .328-.106c-.01-.044-.011-.095-.114-.068l-.004.001a.685.685 0 0 0-.206.078.657.657 0 0 0-.04.024l-.02.013-.004.003a.481.481 0 0 0-.024.018.039.039 0 0 0-.005.054z"/><path id="_339686920" d="m1.998 2.535.137-.018a.017.017 0 0 1 .02.016l.031.285a.017.017 0 0 1-.014.018H2.17l-.138.018a.017.017 0 0 1-.019-.015l-.032-.285a.017.017 0 0 1 .015-.019h.001zm.125.017-.106.014.029.253.105-.014-.028-.253z" style="fill:#afafaf;fill-rule:nonzero"/><path id="_339686656" class="fil12" d="m1.404 2.648.599-.067.026.234-.497.055a.155.155 0 0 1-.17-.136l-.003-.029a.052.052 0 0 1 .045-.057z"/><path id="_339686608" class="fil12" d="m2.139 2.561.385-.044.027.234-.386.044z"/><path id="_339686776" d="M2.398 1.787c.026.252.061.499.102.733l.024-.003.027.234h-.007c.03.15.062.294.095.43a5.33 5.33 0 0 0 .745-.268.743.743 0 0 1-.188-.189.693.693 0 0 0-.155.063v.012A.096.096 0 1 1 3 2.719a.788.788 0 0 1 .107-.05l.014-.005a.383.383 0 0 1 .029-.01 1.467 1.467 0 0 1-.119-.251.712.712 0 0 0-.131.018.096.096 0 1 1-.024-.075l.01-.003a.862.862 0 0 1 .105-.017l.014-.001h.001A2.488 2.488 0 0 1 2.928 2a.698.698 0 0 0-.123.022.096.096 0 1 1-.032-.073l.04-.01a.862.862 0 0 1 .103-.018 1.98 1.98 0 0 1-.015-.134h-.503z" style="fill:#696969"/></g><path style="fill:none" d="M0 0h6.827v6.827H0z"/></g></svg>
